<?xml version="1.0" encoding="UTF-8" standalone="no"?>
<!DOCTYPE svg  PUBLIC '-//W3C//DTD SVG 1.1//EN'  'http://www.w3.org/Graphics/SVG/1.1/DTD/svg11.dtd'>
<svg xmlns="http://www.w3.org/2000/svg">
<defs>
<font id="BentonSans-Light" horiz-adv-x="500">
<font-face underline-position="-113" font-weight="300" descent="-200" panose-1="2 0 6 3 4 0 0 2 0 4" units-per-em="1000" unicode-range="U+0020-25CA" bbox="-35 -205 1272 953" x-height="525" underline-thickness="20" font-family="BentonSans" ascent="800" cap-height="740"/>
<missing-glyph horiz-adv-x="1000"/>
<glyph glyph-name=".notdef" horiz-adv-x="1000"/>
<glyph glyph-name=".null" horiz-adv-x="0"/>
<glyph glyph-name="nonmarkingreturn" horiz-adv-x="333"/>
<glyph glyph-name="space" horiz-adv-x="216" unicode=" "/>
<glyph glyph-name="exclam" horiz-adv-x="303" unicode="!" d="M118 0v80h67v-80h-67zM140 194l-18 546h59l-18 -546h-23z"/>
<glyph glyph-name="quotedbl" horiz-adv-x="392" unicode='&quot;' d="M103 493l-17 196v51h54v-51l-17 -196h-20zM269 493l-17 196v51h54v-51l-17 -196h-20z"/>
<glyph glyph-name="numbersign" horiz-adv-x="695" unicode="#" d="M221 267h210l43 206h-210zM119 0l47 224h-118v43h127l43 206h-127v43h136l47 224h46l-47 -224h210l47 224h46l-47 -224h118v-43h-127l-43 -206h127v-43h-136l-47 -224h-46l47 224h-210l-47 -224h-46z"/>
<glyph glyph-name="dollar" horiz-adv-x="639" unicode="$" d="M339 42q82 4 133 38t51 106q0 38 -14 66.5t-43.5 48t-56 30.5t-70.5 25v-314zM297 700q-80 -4 -121 -40.5t-41 -90.5q0 -60 41.5 -92.5t120.5 -58.5v282zM296 -3q-90 5 -148 46t-85 90l40 25q35 -55 80.5 -84t113.5 -33v328q-50 16 -82.5 30t-65 36.5t-48.5 55t-16 75.5 q0 73 56.5 124t154.5 55v74h44v-75q135 -11 200 -123l-40 -27q-32 51 -67 76t-94 29v-294q44 -14 69 -22.5t61.5 -27.5t55.5 -39t33.5 -53t14.5 -74q0 -84 -63.5 -136t-169.5 -57v-89h-44v90z"/>
<glyph glyph-name="percent" horiz-adv-x="938" unicode="%" d="M714 33q51 0 80.5 50t29.5 124q0 79 -29.5 127t-81.5 48q-51 0 -80.5 -49.5t-29.5 -123.5q0 -79 29.5 -127.5t81.5 -48.5zM225 358q51 0 80.5 50t29.5 124q0 79 -29.5 127t-81.5 48q-51 0 -80.5 -49.5t-29.5 -123.5q0 -79 29.5 -127.5t81.5 -48.5zM713 -10 q-75 0 -116.5 59t-41.5 156q0 101 43.5 160.5t116.5 59.5t115 -58.5t42 -157.5q0 -97 -42.5 -158t-116.5 -61zM224 0l442 740h48l-442 -740h-48zM224 315q-75 0 -116.5 59t-41.5 156q0 101 43.5 160.5t116.5 59.5t115 -58.5t42 -157.5q0 -97 -42.5 -158t-116.5 -61z"/>
<glyph glyph-name="ampersand" horiz-adv-x="716" unicode="&amp;" d="M287 31q108 0 182 71q-60 59 -150 171q-56 71 -77 102q-147 -82 -147 -191q0 -72 48.5 -112.5t143.5 -40.5zM265 433q78 40 121 81.5t43 99.5q0 41 -24 68t-74 27q-55 0 -84 -35t-29 -89q0 -75 47 -152zM286 -14q-120 0 -180.5 52t-60.5 145q0 132 175 228 q-52 89 -52 172q0 71 43.5 121t120.5 50q69 0 108 -38.5t39 -99.5q0 -69 -50 -120t-142 -98q21 -32 74 -101q78 -101 139 -161q68 87 85 231h51q-22 -159 -103 -260q81 -69 153 -69v-48q-52 3 -94.5 21.5t-91.5 61.5q-92 -87 -214 -87z"/>
<glyph glyph-name="quotesingle" horiz-adv-x="226" unicode="&apos;" d="M103 493l-17 196v51h54v-51l-17 -196h-20z"/>
<glyph glyph-name="parenleft" horiz-adv-x="396" unicode="(" d="M315 -205q-248 208 -248 475t248 475l21 -25q-101 -89 -157.5 -204t-56.5 -246t56.5 -246t157.5 -204z"/>
<glyph glyph-name="parenright" horiz-adv-x="396" unicode=")" d="M81 -205l-21 25q101 89 157.5 204t56.5 246t-56.5 246t-157.5 204l21 25q248 -208 248 -475t-248 -475z"/>
<glyph glyph-name="asterisk" horiz-adv-x="508" unicode="*" d="M173 364l-42 25l107 154l-188 -13v46l188 -13l-107 154l42 25l81 -170l81 170l42 -25l-107 -154l188 13v-46l-188 13l107 -154l-42 -25l-81 170z"/>
<glyph glyph-name="plus" horiz-adv-x="634" unicode="+" d="M294 72v230h-229v44h229v230h46v-230h229v-44h-229v-230h-46z"/>
<glyph glyph-name="comma" horiz-adv-x="265" unicode="," d="M105 -97l20 97h-26v80h67v-74l-39 -103h-22z"/>
<glyph glyph-name="hyphen" horiz-adv-x="357" unicode="-" d="M70 290v48h217v-48h-217z"/>
<glyph glyph-name="period" horiz-adv-x="265" unicode="." d="M99 0v80h67v-80h-67z"/>
<glyph glyph-name="slash" horiz-adv-x="528" unicode="/" d="M23 0l430 740h52l-430 -740h-52z"/>
<glyph glyph-name="zero" horiz-adv-x="643" unicode="0" d="M322 30q100 0 156.5 89t56.5 251q0 161 -57.5 250.5t-155.5 89.5q-101 0 -157.5 -89t-56.5 -251q0 -161 58 -250.5t156 -89.5zM322 -14q-125 0 -194 104t-69 280t69 280t194 104t193.5 -104t68.5 -280t-68.5 -280t-193.5 -104z"/>
<glyph glyph-name="one" horiz-adv-x="426" unicode="1" d="M66 0v46h141v637q-64 -34 -139 -34v43q95 3 143 48h45v-694h128v-46h-318z"/>
<glyph glyph-name="two" horiz-adv-x="581" unicode="2" d="M53 0v16q0 84 56.5 161t197.5 167q84 53 119.5 100t35.5 107q0 72 -42.5 115.5t-121.5 43.5q-125 0 -188 -135l-41 20q73 159 231 159q96 0 153.5 -56t57.5 -144q0 -77 -44 -133t-153 -125q-102 -65 -154.5 -129.5t-54.5 -120.5h409v-46h-461z"/>
<glyph glyph-name="three" horiz-adv-x="583" unicode="3" d="M281 -14q-79 0 -143.5 37t-103.5 104l41 25q77 -122 207 -122q86 0 136.5 46t50.5 119q0 90 -57 133.5t-193 43.5h-26v44h32q120 0 174.5 37t54.5 114q0 64 -41.5 103.5t-126.5 39.5q-105 0 -178 -97l-40 26q90 115 219 115q108 0 162 -54t54 -130q0 -72 -40.5 -118.5 t-110.5 -57.5q166 -34 166 -197q0 -90 -64.5 -150.5t-172.5 -60.5z"/>
<glyph glyph-name="four" horiz-adv-x="590" unicode="4" d="M95 235h296v448h-2zM391 0v190h-355v35l337 515h66v-505h125v-45h-125v-190h-48z"/>
<glyph glyph-name="five" horiz-adv-x="576" unicode="5" d="M281 -14q-77 0 -138.5 38.5t-97.5 102.5l41 25q73 -122 196 -122q94 0 144.5 62.5t50.5 148.5q0 93 -50 146t-128 53q-109 0 -177 -101l-41 17l28 384h378l-5 -48h-328l-22 -282q63 74 168 74q98 0 162 -65.5t64 -174.5q0 -112 -67 -185t-178 -73z"/>
<glyph glyph-name="six" horiz-adv-x="601" unicode="6" d="M315 30q85 0 136.5 52.5t51.5 147.5q0 85 -45.5 135.5t-136.5 50.5q-62 0 -117 -33.5t-94 -90.5q12 -130 68.5 -196t136.5 -66zM312 -14q-110 0 -181.5 94t-71.5 277q0 108 33.5 198t98 144.5t146.5 54.5q104 0 171 -55l-28 -39q-32 26 -63.5 38t-80.5 12 q-104 0 -166.5 -100.5t-62.5 -249.5v-7q91 107 217 107q115 0 172 -64.5t57 -165.5q0 -105 -65.5 -174.5t-175.5 -69.5z"/>
<glyph glyph-name="seven" horiz-adv-x="551" unicode="7" d="M128 0l318 692h-387v48h440v-45l-319 -695h-52z"/>
<glyph glyph-name="eight" horiz-adv-x="600" unicode="8" d="M300 30q90 0 148.5 41t58.5 108q0 63 -50 105.5t-159 88.5q-113 -50 -159 -91.5t-46 -102.5q0 -65 58.5 -107t148.5 -42zM301 417q97 41 134.5 74t37.5 87q0 53 -45 92.5t-128 39.5q-80 0 -126.5 -39t-46.5 -90q0 -53 38.5 -87t135.5 -77zM300 -14q-117 0 -186.5 55 t-69.5 135q0 75 49.5 124t153.5 94q-85 37 -127 79t-42 105q0 71 61.5 123.5t160.5 52.5q101 0 161.5 -52.5t60.5 -123.5q0 -64 -40.5 -102.5t-131.5 -79.5q108 -47 157 -95t49 -125q0 -78 -69.5 -134t-186.5 -56z"/>
<glyph glyph-name="nine" horiz-adv-x="601" unicode="9" d="M280 324q62 0 117 33.5t94 90.5q-12 130 -68.5 196t-136.5 66q-85 0 -136.5 -52.5t-51.5 -147.5q0 -85 45.5 -135.5t136.5 -50.5zM264 -14q-113 0 -188 68l27 38q39 -33 73 -47.5t89 -14.5q104 0 166.5 100t62.5 250v7q-91 -107 -217 -107q-115 0 -172 64.5t-57 165.5 q0 105 65.5 174.5t175.5 69.5t181.5 -94t71.5 -277q0 -108 -33.5 -198t-98 -144.5t-146.5 -54.5z"/>
<glyph glyph-name="colon" horiz-adv-x="265" unicode=":" d="M99 0v80h67v-80h-67zM99 445v80h67v-80h-67z"/>
<glyph glyph-name="semicolon" horiz-adv-x="265" unicode=";" d="M105 -97l20 97h-26v80h67v-74l-39 -103h-22zM99 445v80h67v-80h-67z"/>
<glyph glyph-name="less" horiz-adv-x="634" unicode="&lt;" d="M578 78l-529 225v42l529 225v-49l-470 -197l470 -197v-49z"/>
<glyph glyph-name="equal" horiz-adv-x="634" unicode="=" d="M64 187v46h505v-46h-505zM64 415v46h505v-46h-505z"/>
<glyph glyph-name="greater" horiz-adv-x="634" unicode="&gt;" d="M56 78v49l470 197l-470 197v49l529 -225v-42z"/>
<glyph glyph-name="question" horiz-adv-x="526" unicode="?" d="M200 0v80h67v-80h-67zM214 194q-2 36 -2 65q0 53 18.5 86.5t67.5 63.5q71 44 97.5 75.5t26.5 88.5q0 63 -43 99.5t-118 36.5q-63 0 -104 -26.5t-78 -80.5l-38 26q45 61 95.5 93.5t125.5 32.5q92 0 151 -50t59 -129q0 -68 -32.5 -108.5t-97.5 -79.5q-59 -36 -74 -70.5 t-15 -122.5h-39z"/>
<glyph glyph-name="at" horiz-adv-x="868" unicode="@" d="M372 196q83 0 157 70l32 222q-53 63 -137 63q-69 0 -114 -67t-45 -162q0 -126 107 -126zM434 -14q-168 0 -276 106t-108 278q0 171 109 277.5t275 106.5q165 0 274.5 -105t109.5 -269q0 -103 -46 -163t-115 -60q-44 0 -73.5 22t-40.5 54q-86 -76 -169 -76 q-69 0 -111.5 41t-42.5 121q0 114 60 193t154 79q75 0 133 -56l7 47h43l-42 -294q-1 -5 -1 -16q0 -35 22.5 -57t62.5 -22q54 0 88.5 47.5t34.5 139.5q0 150 -99 245t-249 95t-248.5 -98t-98.5 -252t98.5 -252t248.5 -98q104 0 207 53l15 -30q-107 -57 -222 -57z"/>
<glyph glyph-name="A" horiz-adv-x="663" unicode="A" d="M193 293h275l-137 394h-2zM40 0l262 743h59l262 -743h-53l-86 248h-307l-86 -248h-51z"/>
<glyph glyph-name="B" horiz-adv-x="679" unicode="B" d="M149 46h225q197 0 197 154q0 79 -59 118.5t-163 39.5h-200v-312zM149 403h194q97 0 149.5 37t52.5 110q0 74 -48 109t-151 35h-197v-291zM99 0v740h248q126 0 187 -50t61 -137q0 -70 -40.5 -113.5t-102.5 -57.5v-2q74 -14 121.5 -60t47.5 -120q0 -89 -61.5 -144.5 t-188.5 -55.5h-272z"/>
<glyph glyph-name="C" horiz-adv-x="692" unicode="C" d="M364 -14q-137 0 -219 107.5t-82 280.5q0 164 83 272t218 108q204 0 261 -224l-48 -11q-27 97 -77 143.5t-137 46.5q-112 0 -181 -92t-69 -241q0 -161 68.5 -253t183.5 -92q173 0 225 199l47 -11q-27 -110 -98 -171.5t-175 -61.5z"/>
<glyph glyph-name="D" horiz-adv-x="702" unicode="D" d="M149 46h139q145 0 223 80t78 244q0 163 -78.5 243.5t-224.5 80.5h-137v-648zM99 0v740h178q181 0 271.5 -94.5t90.5 -275.5q0 -179 -91.5 -274.5t-270.5 -95.5h-178z"/>
<glyph glyph-name="E" horiz-adv-x="597" unicode="E" d="M99 0v740h428v-46h-378v-278h284v-46h-284v-324h400v-46h-450z"/>
<glyph glyph-name="F" horiz-adv-x="560" unicode="F" d="M99 0v740h421v-46h-371v-278h277v-46h-277v-370h-50z"/>
<glyph glyph-name="G" horiz-adv-x="714" unicode="G" d="M363 -14q-138 0 -219 109t-81 278q0 171 85.5 276t217.5 105q103 0 168.5 -58.5t92.5 -165.5l-48 -11q-28 97 -78 143.5t-136 46.5q-110 0 -181 -90t-71 -243q0 -156 68 -250.5t184 -94.5q99 0 158.5 67.5t59.5 185.5v11h-191v46h240v-341h-49v116h-2q-67 -130 -218 -130 z"/>
<glyph glyph-name="H" horiz-adv-x="724" unicode="H" d="M99 0v740h50v-325h426v325h50v-740h-50v369h-426v-369h-50z"/>
<glyph glyph-name="I" horiz-adv-x="270" unicode="I" d="M110 0v740h50v-740h-50z"/>
<glyph glyph-name="J" horiz-adv-x="490" unicode="J" d="M207 -14q-117 0 -177 109l40 23q27 -44 58 -65.5t78 -21.5q140 0 140 159v550h50v-545q0 -103 -50.5 -156t-138.5 -53z"/>
<glyph glyph-name="K" horiz-adv-x="657" unicode="K" d="M99 0v740h50v-420l379 420h63l-255 -278l295 -462h-59l-271 423l-152 -166v-257h-50z"/>
<glyph glyph-name="L" horiz-adv-x="560" unicode="L" d="M99 0v740h50v-694h370v-46h-420z"/>
<glyph glyph-name="M" horiz-adv-x="863" unicode="M" d="M99 0v740h64l267 -672h2l268 672h64v-740h-51v647h-2q-13 -35 -47 -122l-211 -525h-46l-211 525q-41 105 -47 122h-2v-647h-48z"/>
<glyph glyph-name="N" horiz-adv-x="735" unicode="N" d="M99 0v740h57l430 -642h2v642h48v-740h-43l-444 664h-2v-664h-48z"/>
<glyph glyph-name="O" horiz-adv-x="733" unicode="O" d="M367 31q111 0 182 91.5t71 247.5t-71 247.5t-182 91.5q-112 0 -183 -91.5t-71 -247.5t71 -247.5t183 -91.5zM367 -14q-134 0 -219 107t-85 277t85 277t219 107t218.5 -107.5t84.5 -276.5t-84.5 -276.5t-218.5 -107.5z"/>
<glyph glyph-name="P" horiz-adv-x="635" unicode="P" d="M149 392h187q101 0 152 35.5t51 118.5q0 78 -51.5 113t-152.5 35h-186v-302zM99 0v740h241q120 0 184.5 -50t64.5 -142q0 -101 -67.5 -151.5t-189.5 -50.5h-183v-346h-50z"/>
<glyph glyph-name="Q" horiz-adv-x="733" unicode="Q" d="M367 31q111 0 182 91.5t71 247.5t-71 247.5t-182 91.5q-112 0 -183 -91.5t-71 -247.5t71 -247.5t183 -91.5zM555 -183q-106 0 -160.5 46.5t-54.5 123.5q-124 11 -200.5 117t-76.5 266q0 170 85 277t219 107t218.5 -107.5t84.5 -276.5q0 -162 -77.5 -267.5t-202.5 -115.5 q7 -124 166 -124h51v-46h-52z"/>
<glyph glyph-name="R" horiz-adv-x="663" unicode="R" d="M149 392h187q101 0 152 35.5t51 118.5q0 78 -51.5 113t-152.5 35h-186v-302zM99 0v740h241q120 0 184.5 -50t64.5 -142q0 -165 -181 -195l191 -353h-58l-188 347h-204v-347h-50z"/>
<glyph glyph-name="S" horiz-adv-x="639" unicode="S" d="M325 -14q-101 0 -170 53t-92 146l49 12q21 -82 77 -124t138 -42q90 0 143 40.5t53 107.5q0 64 -40.5 102t-164.5 78q-130 42 -181.5 86t-51.5 126q0 76 63 129.5t159 53.5q98 0 159.5 -46.5t85.5 -127.5l-48 -14q-26 76 -74.5 109.5t-123.5 33.5q-77 0 -124 -39t-47 -96 q0 -65 43 -98t174 -76q122 -40 171.5 -87.5t49.5 -130.5q0 -90 -71 -143t-177 -53z"/>
<glyph glyph-name="T" horiz-adv-x="610" unicode="T" d="M280 0v694h-243v46h536v-46h-243v-694h-50z"/>
<glyph glyph-name="U" horiz-adv-x="713" unicode="U" d="M356 -14q-125 0 -193.5 73.5t-68.5 182.5v498h50v-486q0 -99 53.5 -161t159.5 -62q105 0 158.5 61t53.5 160v488h50v-495q0 -110 -69 -184.5t-194 -74.5z"/>
<glyph glyph-name="V" horiz-adv-x="650" unicode="V" d="M302 -3l-262 743h52l233 -673h2l233 673h50l-262 -743h-46z"/>
<glyph glyph-name="W" horiz-adv-x="918" unicode="W" d="M241 0l-197 740h51l124 -475q22 -84 47 -191h2q18 87 45 190l118 476h58l119 -480q38 -154 44 -186h2q10 46 45 182l126 484h49l-197 -740h-51l-166 671h-2l-167 -671h-50z"/>
<glyph glyph-name="X" horiz-adv-x="642" unicode="X" d="M32 0l263 398l-227 342h58l196 -302l197 302h55l-226 -341l262 -399h-53l-236 360l-238 -360h-51z"/>
<glyph glyph-name="Y" horiz-adv-x="601" unicode="Y" d="M275 0v329l-246 411h56l217 -368l216 368h54l-247 -411v-329h-50z"/>
<glyph glyph-name="Z" horiz-adv-x="615" unicode="Z" d="M45 0v37l457 660h-427v43h486v-37l-457 -660h457v-43h-516z"/>
<glyph glyph-name="bracketleft" horiz-adv-x="376" unicode="[" d="M92 -200v940h233v-40h-184v-860h184v-40h-233z"/>
<glyph glyph-name="backslash" horiz-adv-x="528" unicode="\" d="M453 0l-430 740h52l430 -740h-52z"/>
<glyph glyph-name="bracketright" horiz-adv-x="376" unicode="]" d="M51 -200v40h184v859h-184v41h233v-940h-233z"/>
<glyph glyph-name="asciicircum" d="M101 577l129 156h40l129 -156h-33l-117 104l-117 -104h-31z" unicode="^"/>
<glyph glyph-name="underscore" d="M0 -119v44h500v-44h-500z" unicode="_"/>
<glyph glyph-name="grave" d="M295 582l-139 151h75l95 -151h-31z" unicode="`"/>
<glyph glyph-name="a" horiz-adv-x="540" unicode="a" d="M205 33q114 0 209 92v181q-179 -31 -246 -75.5t-67 -106.5q0 -44 27.5 -67.5t76.5 -23.5zM201 -9q-71 0 -109.5 34.5t-38.5 95.5q0 80 81.5 134t279.5 87v32q0 59 -29.5 89.5t-84.5 30.5q-61 0 -108.5 -22t-95.5 -65l-28 30q53 49 107.5 74t125.5 25q80 0 120.5 -42 t40.5 -117v-247q0 -93 15 -130h-51q-12 38 -12 78q-101 -87 -213 -87z"/>
<glyph glyph-name="b" horiz-adv-x="586" unicode="b" d="M312 33q74 0 122.5 57.5t48.5 171.5q0 113 -49.5 172.5t-123.5 59.5q-50 0 -90 -22.5t-88 -71.5v-273q92 -94 180 -94zM309 -9q-89 0 -177 86v-77h-48v740h48v-294q83 90 179 90t158 -70.5t62 -202.5t-62.5 -202t-159.5 -70z"/>
<glyph glyph-name="c" horiz-adv-x="526" unicode="c" d="M274 -11q-93 0 -156.5 75.5t-63.5 197.5q0 131 66 202.5t161 71.5q133 0 195 -140l-41 -22q-26 60 -62 90t-94 30q-32 0 -62 -12.5t-56.5 -38.5t-42.5 -72.5t-16 -107.5q0 -107 50 -169.5t125 -62.5q58 0 94 29t68 92l38 -19q-35 -72 -83 -108t-120 -36z"/>
<glyph glyph-name="d" horiz-adv-x="586" unicode="d" d="M276 33q50 0 90 22.5t88 71.5v273q-92 94 -180 94q-74 0 -122.5 -58.5t-48.5 -172.5q0 -113 49.5 -171.5t123.5 -58.5zM275 -9q-96 0 -158 69.5t-62 201.5t62.5 203t159.5 71q98 0 177 -88v292h48v-610q0 -94 16 -130h-52q-12 38 -12 79q-84 -88 -179 -88z"/>
<glyph glyph-name="e" horiz-adv-x="539" unicode="e" d="M103 300h332q-6 86 -46.5 140t-112.5 54q-65 0 -114.5 -50.5t-58.5 -143.5zM275 -11q-92 0 -156.5 74.5t-64.5 199.5q0 129 66 201t157 72q94 0 151 -73t57 -196v-7h-383q0 -104 50.5 -166.5t125.5 -62.5q59 0 98 27t71 82l35 -22q-70 -129 -207 -129z"/>
<glyph glyph-name="f" horiz-adv-x="313" unicode="f" d="M120 0v482h-92v43h92v89q0 126 144 126h26v-44q-8 1 -32 1q-90 0 -90 -79v-93h116v-43h-116v-482h-48z"/>
<glyph glyph-name="g" horiz-adv-x="555" unicode="g" d="M275 -160q85 0 134.5 27.5t49.5 71.5q0 41 -35.5 63.5t-112.5 29.5l-109 9q-18 2 -26 3q-50 -15 -76.5 -44t-26.5 -64q0 -96 202 -96zM262 200q70 0 112 40.5t42 105.5q0 68 -41 108.5t-114 40.5q-70 0 -112 -41t-42 -108q0 -65 42.5 -105.5t112.5 -40.5zM273 -200 q-122 0 -184.5 34.5t-62.5 97.5q0 84 101 123q-50 19 -50 68q0 42 61 72q-78 52 -78 151q0 83 58 136.5t143 53.5q88 0 145 -54q54 38 119 47v-52q-57 0 -98 -19q36 -47 36 -112q0 -85 -58.5 -136t-142.5 -51q-48 0 -90 17q-47 -18 -47 -49q0 -35 84 -43l123 -11 q174 -16 174 -130q0 -67 -64.5 -105t-168.5 -38z"/>
<glyph glyph-name="h" horiz-adv-x="573" unicode="h" d="M84 0v740h48v-302q103 98 203 98q80 0 119.5 -41t39.5 -114v-381h-48v375q0 61 -28 90t-87 29q-94 0 -199 -100v-394h-48z"/>
<glyph glyph-name="i" horiz-adv-x="228" unicode="i" d="M90 0v525h48v-525h-48zM88 659v61h52v-61h-52z"/>
<glyph glyph-name="j" horiz-adv-x="228" unicode="j" d="M42 -200q-16 0 -28 2v43q12 -3 28 -3q48 0 48 55v628h48v-622q0 -103 -96 -103zM88 659v61h52v-61h-52z"/>
<glyph glyph-name="k" horiz-adv-x="517" unicode="k" d="M84 0v740h48v-511l271 296h60l-172 -183l195 -342h-54l-175 305l-125 -134v-171h-48z"/>
<glyph glyph-name="l" horiz-adv-x="228" unicode="l" d="M90 0v740h48v-740h-48z"/>
<glyph glyph-name="m" horiz-adv-x="909" unicode="m" d="M84 0v525h48v-87q103 98 197 98q120 0 146 -99q108 99 203 99q152 0 152 -155v-381h-48v375q0 61 -25 90t-84 29q-87 0 -192 -100v-394h-48v375q0 62 -25 90.5t-84 28.5q-87 0 -192 -100v-394h-48z"/>
<glyph glyph-name="n" horiz-adv-x="573" unicode="n" d="M84 0v525h48v-87q103 98 203 98q80 0 119.5 -41t39.5 -114v-381h-48v375q0 61 -28 90t-87 29q-94 0 -199 -100v-394h-48z"/>
<glyph glyph-name="o" horiz-adv-x="570" unicode="o" d="M285 31q83 0 133 65t50 167q0 97 -49 164t-134 67q-83 0 -133 -65.5t-50 -165.5q0 -98 48.5 -165t134.5 -67zM285 -11q-99 0 -165 75t-66 198q0 124 65.5 199t165.5 75q99 0 165 -75t66 -199q0 -123 -66 -198t-165 -75z"/>
<glyph glyph-name="p" horiz-adv-x="586" unicode="p" d="M312 33q74 0 122.5 57.5t48.5 171.5q0 113 -49.5 172.5t-123.5 59.5q-50 0 -90 -22.5t-88 -71.5v-273q92 -94 180 -94zM84 -200v725h48v-77q84 88 179 88q96 0 158 -70.5t62 -202.5t-62.5 -202t-159.5 -70q-89 0 -177 86v-277h-48z"/>
<glyph glyph-name="q" horiz-adv-x="586" unicode="q" d="M276 33q50 0 90 22.5t88 71.5v273q-92 94 -180 94q-74 0 -122.5 -58.5t-48.5 -172.5q0 -113 49.5 -171.5t123.5 -58.5zM454 -200v279q-84 -88 -179 -88q-96 0 -158 69.5t-62 201.5t62.5 203t159.5 71q89 0 177 -86v75h48v-725h-48z"/>
<glyph glyph-name="r" horiz-adv-x="388" unicode="r" d="M84 0v525h48v-110h2q77 121 216 121h14l-8 -45h-17q-67 0 -121 -37.5t-86 -107.5v-346h-48z"/>
<glyph glyph-name="s" d="M245 -9q-130 0 -197 97l35 27q64 -82 163 -82q73 0 111.5 27.5t38.5 76.5q0 48 -33.5 73t-122.5 46q-100 25 -138.5 57t-38.5 92q0 54 46 92.5t127 38.5q112 0 186 -77l-32 -33q-63 68 -155 68q-61 0 -92.5 -25.5t-31.5 -61.5q0 -41 28 -63t105 -41q114 -28 157 -62.5 t43 -103.5q0 -67 -55 -106.5t-144 -39.5z" unicode="s"/>
<glyph glyph-name="t" horiz-adv-x="350" unicode="t" d="M247 -7q-66 0 -97.5 29t-31.5 95v365h-92v43h92v191h48v-191h137v-43h-137v-358q0 -45 19 -66.5t66 -21.5q34 0 55 7v-45q-28 -5 -59 -5z"/>
<glyph glyph-name="u" horiz-adv-x="573" unicode="u" d="M238 -11q-80 0 -119.5 41t-39.5 114v381h48v-375q0 -61 28 -90t87 -29q94 0 199 100v394h48v-525h-48v87q-103 -98 -203 -98z"/>
<glyph glyph-name="v" horiz-adv-x="502" unicode="v" d="M227 -3l-195 528h53l166 -465h2l165 465h52l-195 -528h-48z"/>
<glyph glyph-name="w" horiz-adv-x="741" unicode="w" d="M196 0l-163 525h51l81 -276q39 -138 52 -183h2q27 103 50 182l78 277h49l79 -283q22 -77 48 -176h2q36 128 50 174l84 285h49l-163 -525h-45l-128 458h-2l-130 -458h-44z"/>
<glyph glyph-name="x" horiz-adv-x="503" unicode="x" d="M35 0l191 272l-177 253h55l148 -216l149 216h54l-178 -252l191 -273h-55l-162 235l-162 -235h-54z"/>
<glyph glyph-name="y" horiz-adv-x="519" unicode="y" d="M87 -200q-42 0 -72 9l12 40q26 -7 66 -7q46 0 73 21t45 69l25 65l-204 528h53l174 -467h2l174 467h52l-227 -587q-29 -75 -65 -106.5t-108 -31.5z"/>
<glyph glyph-name="z" d="M44 0v33l335 450h-308v42h370v-33l-336 -450h348v-42h-409z" unicode="z"/>
<glyph glyph-name="braceleft" horiz-adv-x="366" unicode="{" d="M275 -200q-67 0 -97 33t-30 100v198q0 70 -25.5 95t-85.5 25v38q60 0 85.5 25t25.5 95v198q0 67 30 100t97 33h44v-40h-44q-78 0 -78 -76v-214q0 -68 -20 -96t-65 -43v-2q45 -15 65 -43t20 -96v-214q0 -76 78 -76h44v-40h-44z"/>
<glyph glyph-name="bar" horiz-adv-x="332" unicode="|" d="M143 -200v940h46v-940h-46z"/>
<glyph glyph-name="braceright" horiz-adv-x="366" unicode="}" d="M47 -200v40h44q78 0 78 76v214q0 68 20 96t65 43v2q-45 15 -65 43t-20 96v214q0 80 -74 80h-44l-4 36h44q67 0 97 -33t30 -100v-198q0 -70 25.5 -95t85.5 -25v-38q-60 0 -85.5 -25t-25.5 -95v-198q0 -67 -30 -100t-97 -33h-44z"/>
<glyph glyph-name="asciitilde" d="M323 424q-27 0 -78 28t-70 28q-22 0 -31.5 -12.5t-9.5 -41.5h-34q0 99 77 99q28 0 78.5 -28t69.5 -28q22 0 31.5 12.5t9.5 41.5h34q0 -99 -77 -99z" unicode="~"/>
<glyph glyph-name="nbspace" horiz-adv-x="108" unicode=" "/>
<glyph glyph-name="exclamdown" horiz-adv-x="303" unicode="¡" d="M122 0l18 546h23l18 -546h-59zM118 660v80h67v-80h-67z"/>
<glyph glyph-name="cent" horiz-adv-x="526" unicode="¢" d="M303 493q-8 1 -24 1q-32 0 -62 -12.5t-56.5 -38.5t-42.5 -72.5t-16 -107.5q0 -141 84 -203zM173 17q-55 32 -87 96t-32 149q0 131 66 202.5t161 71.5q11 0 31 -2l28 104h40l-31 -113q82 -27 127 -129l-41 -22q-37 88 -99 111l-119 -442q29 -12 60 -12q58 0 94 29t68 92 l38 -19q-35 -72 -83 -108t-120 -36q-33 0 -66 11l-35 -129h-40z"/>
<glyph glyph-name="sterling" horiz-adv-x="591" unicode="£" d="M234 100q-53 48 -93 48q-28 0 -45 -18t-17 -47q0 -26 17 -41t42 -15q70 0 96 73zM209 372h-123v44h100q-50 94 -50 155q0 82 48.5 132.5t134.5 50.5q89 0 135 -53t50 -130l-49 -3q-9 142 -139 142q-62 0 -96.5 -36.5t-34.5 -101.5q0 -8 1 -16.5t2 -15.5t3.5 -16t4.5 -15 t6 -16t6 -14.5t7.5 -16t7.5 -15t8 -16t8 -15.5h171v-44h-148q37 -81 37 -151q0 -62 -14 -112q29 -27 44 -39.5t41.5 -26t50.5 -13.5q46 0 68.5 35t27.5 111h46q-10 -190 -143 -190q-28 0 -57 13.5t-47.5 28.5t-46.5 41q-44 -83 -132 -83q-40 0 -71 25.5t-31 69.5 q0 47 29 77.5t79 30.5q47 0 103 -45q6 32 6 74q0 70 -43 154z"/>
<glyph glyph-name="currency" horiz-adv-x="712" unicode="¤" d="M145 423h-124v45h129q19 141 93 213.5t171 72.5q174 0 228 -214l-48 -11q-26 93 -64 136.5t-117 43.5q-81 0 -139.5 -61t-75.5 -180h243v-45h-248q-1 -14 -1 -44q0 -23 2 -61h247v-46h-242q17 -118 73 -179.5t143 -61.5q79 0 123 47t69 142l47 -11q-57 -223 -240 -223 q-104 0 -174 72.5t-90 213.5h-129v46h125q-2 36 -2 57q0 9 0.5 25t0.5 23z"/>
<glyph glyph-name="yen" horiz-adv-x="601" unicode="¥" d="M275 0v137h-194v46h194v105h-194v45h192l-244 407h56l217 -368l216 368h54l-245 -407h194v-45h-196v-105h196v-46h-196v-137h-50z"/>
<glyph glyph-name="brokenbar" horiz-adv-x="332" unicode="¦" d="M143 -200v409h46v-409h-46zM143 331v409h46v-409h-46z"/>
<glyph glyph-name="section" horiz-adv-x="518" unicode="§" d="M288 120q126 54 126 140q0 42 -33.5 73.5t-143.5 96.5q-1 0 -3.5 1.5t-3.5 2.5q-126 -54 -126 -140q0 -42 33.5 -73.5t143.5 -96.5q1 0 3.5 -2t3.5 -2zM260 -200q-156 0 -187 147l46 10q14 -56 47 -84.5t93 -28.5t89 28.5t29 69.5q0 39 -24.5 69.5t-98.5 73.5 q-120 70 -159.5 110t-39.5 98q0 102 135 166q-60 41 -81.5 74t-21.5 77q0 57 47 100.5t124 43.5q160 0 191 -147l-46 -10q-14 56 -47.5 84.5t-96.5 28.5q-60 0 -91 -28.5t-31 -69.5q0 -38 26 -68.5t101 -74.5q120 -70 159.5 -110t39.5 -98q0 -57 -39 -99t-95 -68 q59 -40 78.5 -72.5t19.5 -77.5q0 -58 -45 -101t-122 -43z"/>
<glyph glyph-name="dieresis" d="M134 582v67h64v-67h-64zM302 582v67h64v-67h-64z" unicode="¨"/>
<glyph glyph-name="copyright" horiz-adv-x="862" unicode="©" d="M429 156q-79 0 -126 61.5t-47 160.5q0 94 47.5 156t125.5 62q118 0 154 -134l-36 -9q-16 56 -43.5 82t-74.5 26q-61 0 -98 -50.5t-37 -131.5q0 -87 36.5 -137.5t99.5 -50.5q93 0 123 113q30 -8 36 -9q-17 -67 -58.5 -103t-101.5 -36zM431 20q144 0 244.5 103t100.5 247 t-100.5 247t-244.5 103t-244.5 -103t-100.5 -247t100.5 -247t244.5 -103zM431 -14q-159 0 -270 112.5t-111 271.5t111 271.5t270 112.5t270 -112.5t111 -271.5t-111 -271.5t-270 -112.5z"/>
<glyph glyph-name="ordfeminine" horiz-adv-x="408" unicode="ª" d="M165 408q74 0 142 63v116q-120 -20 -165.5 -49.5t-45.5 -71.5q0 -58 69 -58zM162 371q-52 0 -80 25t-28 68q0 56 57 94t196 62v19q0 79 -76 79q-77 0 -139 -60l-29 24q77 72 169 72q58 0 87 -30t29 -83v-169q0 -64 14 -93h-46q-8 24 -9 49q-72 -57 -145 -57z"/>
<glyph glyph-name="guillemotleft" horiz-adv-x="496" unicode="«" d="M194 0l-144 263l144 262h53l-142 -262l142 -263h-53zM378 0l-145 263l145 262h53l-143 -262l143 -263h-53z"/>
<glyph glyph-name="logicalnot" horiz-adv-x="760" unicode="¬" d="M242 233l121 -6v125h-126zM518 232l6 120h-126v-125zM243 509l-6 -122h126v127zM519 508l-121 6v-127h126zM562 552l32 2v-49l-34 1l-6 -119l196 10v-55l-196 10l6 -118l34 2v-49l-32 2l2 -33h-49l1 35l-118 6l10 -197h-55l10 197l-119 -6l2 -35h-49l2 33l-32 -2v49 l34 -1l6 117l-197 -10v55l197 -10l-6 120l-34 -2v49l32 -2l-2 31h49l-1 -33l118 -6l-10 196h55l-10 -196l119 6l-2 33h49z"/>
<glyph glyph-name="registered" horiz-adv-x="862" unicode="®" d="M334 394h100q54 0 81.5 18.5t27.5 63.5q0 77 -110 77h-99v-159zM296 165v424h140q70 0 107.5 -29t37.5 -83q0 -95 -100 -113l108 -199h-42l-106 194h-107v-194h-38zM431 20q144 0 244.5 103t100.5 247t-100.5 247t-244.5 103t-244.5 -103t-100.5 -247t100.5 -247 t244.5 -103zM431 -14q-159 0 -270 112.5t-111 271.5t111 271.5t270 112.5t270 -112.5t111 -271.5t-111 -271.5t-270 -112.5z"/>
<glyph glyph-name="macron" d="M114 623v46h272v-46h-272z" unicode="¯"/>
<glyph glyph-name="degree" horiz-adv-x="400" unicode="°" d="M200 522q41 0 67.5 27t26.5 70t-26.5 70t-67.5 27t-67.5 -27t-26.5 -70t26.5 -70t67.5 -27zM200 484q-59 0 -98 38.5t-39 96.5t39 96.5t98 38.5t98 -38.5t39 -96.5t-39 -96.5t-98 -38.5z"/>
<glyph glyph-name="plusminus" horiz-adv-x="832" unicode="±" d="M694 0v739h48v-739h-48zM120 0v482h-92v43h92v89q0 126 144 126h26v-44q-8 1 -32 1q-90 0 -90 -79v-93h239v89q0 126 144 126h26v-44q-8 1 -32 1q-90 0 -90 -79v-93h116v-43h-116v-482h-48v482h-239v-482h-48z"/>
<glyph glyph-name="twosuperior" horiz-adv-x="439" unicode="²" d="M70 282v18q0 52 34.5 99.5t121.5 103.5q48 31 68.5 57.5t20.5 60.5q0 39 -23.5 63t-66.5 24q-37 0 -62.5 -19.5t-46.5 -63.5l-39 19q49 106 149 106q61 0 97.5 -35.5t36.5 -92.5q0 -48 -27 -83t-95 -78q-112 -71 -120 -135h244v-44h-292z"/>
<glyph glyph-name="threesuperior" horiz-adv-x="439" unicode="³" d="M218 273q-103 0 -158 96l36 24q46 -77 123 -77q48 0 76 25t28 66q0 51 -33 75.5t-109 24.5h-23v38h27q129 0 129 85q0 35 -23 56.5t-70 21.5q-59 0 -106 -60l-35 23q59 79 142 79q69 0 103.5 -34.5t34.5 -83.5q0 -80 -79 -106q88 -27 88 -118q0 -57 -41 -96t-110 -39z "/>
<glyph glyph-name="acute" d="M174 582l95 151h75l-139 -151h-31z" unicode="´"/>
<glyph glyph-name="mu" horiz-adv-x="578" unicode="µ" d="M84 -200v725h48v-375q0 -61 28 -90t87 -29q94 0 199 100v394h48v-525h-48v87q-103 -98 -203 -98q-78 0 -111 43v-232h-48z"/>
<glyph glyph-name="paragraph" horiz-adv-x="615" unicode="¶" d="M309 -200v543q-243 5 -243 197q0 89 60.5 144.5t168.5 55.5h218v-940h-48v895h-108v-895h-48z"/>
<glyph glyph-name="periodcentered" horiz-adv-x="265" unicode="·" d="M99 274v80h67v-80h-67z"/>
<glyph glyph-name="cedilla" d="M248 -193q-63 0 -118 36l16 25q45 -30 96 -30q80 0 80 51q0 37 -44 37q-28 0 -55 -21l-25 12l25 83h37l-17 -56q23 15 52 15t49.5 -17.5t20.5 -49.5q0 -44 -32.5 -64.5t-84.5 -20.5z" unicode="¸"/>
<glyph glyph-name="onesuperior" horiz-adv-x="401" unicode="¹" d="M102 282v42h85v361q-37 -16 -83 -16v42q63 2 89 29h39v-416h77v-42h-207z"/>
<glyph glyph-name="ordmasculine" horiz-adv-x="421" unicode="º" d="M210 408q57 0 91 43.5t34 111.5q0 65 -33 110t-92 45q-56 0 -90 -44t-34 -111q0 -65 32.5 -110t91.5 -45zM210 371q-71 0 -118 52t-47 139q0 88 46.5 140t118.5 52t119 -52t47 -140q0 -87 -47.5 -139t-118.5 -52z"/>
<glyph glyph-name="guillemotright" horiz-adv-x="496" unicode="»" d="M65 0l143 263l-143 262h53l145 -262l-145 -263h-53zM249 0l142 263l-142 262h53l144 -262l-144 -263h-53z"/>
<glyph glyph-name="onequarter" horiz-adv-x="907" unicode="¼" d="M565 157h155v236zM720 0v114h-213v31l206 315h52v-303h75v-43h-75v-114h-45zM221 0l443 740h48l-443 -740h-48zM102 282v42h85v361q-37 -16 -83 -16v42q63 2 89 29h39v-416h77v-42h-207z"/>
<glyph glyph-name="onehalf" horiz-adv-x="947" unicode="½" d="M576 0v18q0 52 34.5 99.5t121.5 103.5q48 31 68.5 57.5t20.5 60.5q0 39 -23.5 63t-66.5 24q-37 0 -62.5 -19.5t-46.5 -63.5l-39 19q49 106 149 106q61 0 97.5 -35.5t36.5 -92.5q0 -48 -27 -83t-95 -78q-112 -71 -120 -135h244v-44h-292zM221 0l443 740h48l-443 -740h-48z M102 282v42h85v361q-37 -16 -83 -16v42q63 2 89 29h39v-416h77v-42h-207z"/>
<glyph glyph-name="threequarters" horiz-adv-x="931" unicode="¾" d="M589 157h155v236zM744 0v114h-213v31l206 315h52v-303h75v-43h-75v-114h-45zM246 0l443 740h48l-443 -740h-48zM218 273q-103 0 -158 96l36 24q46 -77 123 -77q48 0 76 25t28 66q0 51 -33 75.5t-109 24.5h-23v38h27q129 0 129 85q0 35 -23 56.5t-70 21.5q-59 0 -106 -60 l-35 23q59 79 142 79q69 0 103.5 -34.5t34.5 -83.5q0 -80 -79 -106q88 -27 88 -118q0 -57 -41 -96t-110 -39z"/>
<glyph glyph-name="questiondown" horiz-adv-x="526" unicode="¿" d="M264 -14q-92 0 -151 50t-59 129q0 68 32.5 108.5t97.5 79.5q59 36 74 70.5t15 122.5h39q2 -36 2 -65q0 -53 -18.5 -86.5t-67.5 -63.5q-71 -44 -97.5 -75.5t-26.5 -88.5q0 -63 43 -99.5t118 -36.5q63 0 104 26.5t78 80.5l38 -26q-45 -61 -95.5 -93.5t-125.5 -32.5z M259 660v80h67v-80h-67z"/>
<glyph glyph-name="Agrave" horiz-adv-x="663" unicode="À" d="M193 293h275l-137 394h-2zM40 0l262 743h59l262 -743h-53l-86 248h-307l-86 -248h-51zM316 787l-139 151h75l95 -151h-31z"/>
<glyph glyph-name="Aacute" horiz-adv-x="663" unicode="Á" d="M193 293h275l-137 394h-2zM40 0l262 743h59l262 -743h-53l-86 248h-307l-86 -248h-51zM318 787l95 151h75l-139 -151h-31z"/>
<glyph glyph-name="Acircumflex" horiz-adv-x="663" unicode="Â" d="M193 293h275l-137 394h-2zM40 0l262 743h59l262 -743h-53l-86 248h-307l-86 -248h-51zM182 782l129 156h40l129 -156h-33l-117 104l-117 -104h-31z"/>
<glyph glyph-name="Atilde" horiz-adv-x="663" unicode="Ã" d="M193 293h275l-137 394h-2zM40 0l262 743h59l262 -743h-53l-86 248h-307l-86 -248h-51zM405 785q-27 0 -78 28t-70 28q-22 0 -31.5 -12.5t-9.5 -41.5h-34q0 99 77 99q28 0 78.5 -28t69.5 -28q22 0 31.5 12.5t9.5 41.5h34q0 -99 -77 -99z"/>
<glyph glyph-name="Adieresis" horiz-adv-x="663" unicode="Ä" d="M193 293h275l-137 394h-2zM40 0l262 743h59l262 -743h-53l-86 248h-307l-86 -248h-51zM215 787v67h64v-67h-64zM383 787v67h64v-67h-64z"/>
<glyph glyph-name="Aring" horiz-adv-x="663" unicode="Å" d="M193 293h275l-137 394h-2zM331 745q24 0 39.5 16.5t15.5 41.5t-15.5 41t-39.5 16t-39.5 -16t-15.5 -41t15.5 -41.5t39.5 -16.5zM368 724l255 -724h-53l-86 248h-307l-86 -248h-51l255 723q-23 10 -37 31t-14 49q0 37 25 61.5t62 24.5t62 -24.5t25 -61.5q0 -57 -50 -79z "/>
<glyph glyph-name="AE" horiz-adv-x="978" unicode="Æ" d="M248 293h232v408h-1zM30 0l421 740h457v-46h-378v-278h284v-46h-284v-324h400v-46h-450v248h-258l-141 -248h-51z"/>
<glyph glyph-name="Ccedilla" horiz-adv-x="692" unicode="Ç" d="M363 -193q-63 0 -118 36l16 25q45 -30 96 -30q80 0 80 51q0 37 -44 37q-28 0 -55 -21l-25 12l21 70q-125 13 -198 118.5t-73 268.5q0 164 83 272t218 108q204 0 261 -224l-48 -11q-27 97 -77 143.5t-137 46.5q-112 0 -181 -92t-69 -241q0 -161 68.5 -253t183.5 -92 q173 0 225 199l47 -11q-26 -108 -95.5 -169.5t-170.5 -63.5l-13 -42q23 15 52 15t49.5 -17.5t20.5 -49.5q0 -44 -32.5 -64.5t-84.5 -20.5z"/>
<glyph glyph-name="Egrave" horiz-adv-x="597" unicode="È" d="M99 0v740h428v-46h-378v-278h284v-46h-284v-324h400v-46h-450zM317 787l-139 151h75l95 -151h-31z"/>
<glyph glyph-name="Eacute" horiz-adv-x="597" unicode="É" d="M99 0v740h428v-46h-378v-278h284v-46h-284v-324h400v-46h-450zM282 787l95 151h75l-139 -151h-31z"/>
<glyph glyph-name="Ecircumflex" horiz-adv-x="597" unicode="Ê" d="M99 0v740h428v-46h-378v-278h284v-46h-284v-324h400v-46h-450zM164 782l129 156h40l129 -156h-33l-117 104l-117 -104h-31z"/>
<glyph glyph-name="Edieresis" horiz-adv-x="597" unicode="Ë" d="M99 0v740h428v-46h-378v-278h284v-46h-284v-324h400v-46h-450zM202 787v67h64v-67h-64zM370 787v67h64v-67h-64z"/>
<glyph glyph-name="Igrave" horiz-adv-x="270" unicode="Ì" d="M127 787l-139 151h75l95 -151h-31zM110 0v740h50v-740h-50z"/>
<glyph glyph-name="Iacute" horiz-adv-x="270" unicode="Í" d="M110 0v740h50v-740h-50zM124 787l95 151h75l-139 -151h-31z"/>
<glyph glyph-name="Icircumflex" horiz-adv-x="270" unicode="Î" d="M-14 782l129 156h40l129 -156h-33l-117 104l-117 -104h-31zM110 0v740h50v-740h-50z"/>
<glyph glyph-name="Idieresis" horiz-adv-x="270" unicode="Ï" d="M19 787v67h64v-67h-64zM187 787v67h64v-67h-64zM110 0v740h50v-740h-50z"/>
<glyph glyph-name="Eth" horiz-adv-x="702" unicode="Ð" d="M149 46h139q145 0 223 80t78 244q0 163 -78.5 243.5t-224.5 80.5h-137v-278h162v-46h-162v-324zM99 0v370h-87v46h87v324h178q181 0 271.5 -94.5t90.5 -275.5q0 -179 -91.5 -274.5t-270.5 -95.5h-178z"/>
<glyph glyph-name="Ntilde" horiz-adv-x="735" unicode="Ñ" d="M99 0v740h57l430 -642h2v642h48v-740h-43l-444 664h-2v-664h-48zM452 785q-27 0 -78 28t-70 28q-22 0 -31.5 -12.5t-9.5 -41.5h-34q0 99 77 99q28 0 78.5 -28t69.5 -28q22 0 31.5 12.5t9.5 41.5h34q0 -99 -77 -99z"/>
<glyph glyph-name="Ograve" horiz-adv-x="733" unicode="Ò" d="M367 31q111 0 182 91.5t71 247.5t-71 247.5t-182 91.5q-112 0 -183 -91.5t-71 -247.5t71 -247.5t183 -91.5zM367 -14q-134 0 -219 107t-85 277t85 277t219 107t218.5 -107.5t84.5 -276.5t-84.5 -276.5t-218.5 -107.5zM356 787l-139 151h75l95 -151h-31z"/>
<glyph glyph-name="Oacute" horiz-adv-x="733" unicode="Ó" d="M367 31q111 0 182 91.5t71 247.5t-71 247.5t-182 91.5q-112 0 -183 -91.5t-71 -247.5t71 -247.5t183 -91.5zM367 -14q-134 0 -219 107t-85 277t85 277t219 107t218.5 -107.5t84.5 -276.5t-84.5 -276.5t-218.5 -107.5zM342 787l95 151h75l-139 -151h-31z"/>
<glyph glyph-name="Ocircumflex" horiz-adv-x="733" unicode="Ô" d="M367 31q111 0 182 91.5t71 247.5t-71 247.5t-182 91.5q-112 0 -183 -91.5t-71 -247.5t71 -247.5t183 -91.5zM367 -14q-134 0 -219 107t-85 277t85 277t219 107t218.5 -107.5t84.5 -276.5t-84.5 -276.5t-218.5 -107.5zM217 782l129 156h40l129 -156h-33l-117 104 l-117 -104h-31z"/>
<glyph glyph-name="Otilde" horiz-adv-x="733" unicode="Õ" d="M367 31q111 0 182 91.5t71 247.5t-71 247.5t-182 91.5q-112 0 -183 -91.5t-71 -247.5t71 -247.5t183 -91.5zM367 -14q-134 0 -219 107t-85 277t85 277t219 107t218.5 -107.5t84.5 -276.5t-84.5 -276.5t-218.5 -107.5zM439 785q-27 0 -78 28t-70 28q-22 0 -31.5 -12.5 t-9.5 -41.5h-34q0 99 77 99q28 0 78.5 -28t69.5 -28q22 0 31.5 12.5t9.5 41.5h34q0 -99 -77 -99z"/>
<glyph glyph-name="Odieresis" horiz-adv-x="733" unicode="Ö" d="M367 31q111 0 182 91.5t71 247.5t-71 247.5t-182 91.5q-112 0 -183 -91.5t-71 -247.5t71 -247.5t183 -91.5zM367 -14q-134 0 -219 107t-85 277t85 277t219 107t218.5 -107.5t84.5 -276.5t-84.5 -276.5t-218.5 -107.5zM250 787v67h64v-67h-64zM418 787v67h64v-67h-64z"/>
<glyph glyph-name="multiply" horiz-adv-x="634" unicode="×" d="M141 111l-29 29l175 175l-175 176l29 29l175 -176l176 176l29 -29l-176 -176l176 -175l-29 -29l-176 176z"/>
<glyph glyph-name="Oslash" horiz-adv-x="733" unicode="Ø" d="M562 599l-367 -489q68 -79 172 -79q111 0 182 91.5t71 247.5q0 137 -58 229zM172 140l366 491q-69 78 -171 78q-112 0 -183 -91.5t-71 -247.5q0 -139 59 -230zM592 638q78 -105 78 -268q0 -169 -84.5 -276.5t-218.5 -107.5q-117 0 -199 84l-64 -85l-34 22l71 95 q-78 107 -78 268q0 170 85 277t219 107q116 0 198 -84l64 85l34 -22z"/>
<glyph glyph-name="Ugrave" horiz-adv-x="713" unicode="Ù" d="M356 -14q-125 0 -193.5 73.5t-68.5 182.5v498h50v-486q0 -99 53.5 -161t159.5 -62q105 0 158.5 61t53.5 160v488h50v-495q0 -110 -69 -184.5t-194 -74.5zM354 787l-139 151h75l95 -151h-31z"/>
<glyph glyph-name="Uacute" horiz-adv-x="713" unicode="Ú" d="M356 -14q-125 0 -193.5 73.5t-68.5 182.5v498h50v-486q0 -99 53.5 -161t159.5 -62q105 0 158.5 61t53.5 160v488h50v-495q0 -110 -69 -184.5t-194 -74.5zM323 787l95 151h75l-139 -151h-31z"/>
<glyph glyph-name="Ucircumflex" horiz-adv-x="713" unicode="Û" d="M356 -14q-125 0 -193.5 73.5t-68.5 182.5v498h50v-486q0 -99 53.5 -161t159.5 -62q105 0 158.5 61t53.5 160v488h50v-495q0 -110 -69 -184.5t-194 -74.5zM207 782l129 156h40l129 -156h-33l-117 104l-117 -104h-31z"/>
<glyph glyph-name="Udieresis" horiz-adv-x="713" unicode="Ü" d="M356 -14q-125 0 -193.5 73.5t-68.5 182.5v498h50v-486q0 -99 53.5 -161t159.5 -62q105 0 158.5 61t53.5 160v488h50v-495q0 -110 -69 -184.5t-194 -74.5zM240 787v67h64v-67h-64zM408 787v67h64v-67h-64z"/>
<glyph glyph-name="Yacute" horiz-adv-x="601" unicode="Ý" d="M275 0v329l-246 411h56l217 -368l216 368h54l-247 -411v-329h-50zM224 797l95 151h75l-139 -151h-31z"/>
<glyph glyph-name="Thorn" horiz-adv-x="640" unicode="Þ" d="M149 245h187q101 0 152 35.5t51 118.5q0 78 -51.5 113t-152.5 35h-186v-302zM99 0v740h50v-147h191q120 -1 184.5 -50.5t64.5 -141.5q0 -101 -67.5 -151.5t-189.5 -50.5h-183v-199h-50z"/>
<glyph glyph-name="germandbls" horiz-adv-x="597" unicode="ß" d="M354 -11q-89 0 -141 55l31 31q46 -44 113 -44q61 0 98.5 47t37.5 128q0 96 -59.5 141t-180.5 50v40q87 1 131.5 38.5t44.5 96.5q0 60 -39.5 93t-107.5 33q-72 0 -111 -44.5t-39 -127.5v-526h-48v522q0 102 52.5 160t146.5 58q88 0 141 -44t53 -123q0 -56 -33.5 -97 t-95.5 -57q88 -12 140.5 -63t52.5 -147q0 -99 -50.5 -159.5t-136.5 -60.5z"/>
<glyph glyph-name="agrave" horiz-adv-x="540" unicode="à" d="M205 33q114 0 209 92v181q-179 -31 -246 -75.5t-67 -106.5q0 -44 27.5 -67.5t76.5 -23.5zM201 -9q-71 0 -109.5 34.5t-38.5 95.5q0 80 81.5 134t279.5 87v32q0 59 -29.5 89.5t-84.5 30.5q-61 0 -108.5 -22t-95.5 -65l-28 30q53 49 107.5 74t125.5 25q80 0 120.5 -42 t40.5 -117v-247q0 -93 15 -130h-51q-12 38 -12 78q-101 -87 -213 -87zM281 582l-139 151h75l95 -151h-31z"/>
<glyph glyph-name="aacute" horiz-adv-x="540" unicode="á" d="M205 33q114 0 209 92v181q-179 -31 -246 -75.5t-67 -106.5q0 -44 27.5 -67.5t76.5 -23.5zM201 -9q-71 0 -109.5 34.5t-38.5 95.5q0 80 81.5 134t279.5 87v32q0 59 -29.5 89.5t-84.5 30.5q-61 0 -108.5 -22t-95.5 -65l-28 30q53 49 107.5 74t125.5 25q80 0 120.5 -42 t40.5 -117v-247q0 -93 15 -130h-51q-12 38 -12 78q-101 -87 -213 -87zM252 582l95 151h75l-139 -151h-31z"/>
<glyph glyph-name="acircumflex" horiz-adv-x="540" unicode="â" d="M205 33q114 0 209 92v181q-179 -31 -246 -75.5t-67 -106.5q0 -44 27.5 -67.5t76.5 -23.5zM201 -9q-71 0 -109.5 34.5t-38.5 95.5q0 80 81.5 134t279.5 87v32q0 59 -29.5 89.5t-84.5 30.5q-61 0 -108.5 -22t-95.5 -65l-28 30q53 49 107.5 74t125.5 25q80 0 120.5 -42 t40.5 -117v-247q0 -93 15 -130h-51q-12 38 -12 78q-101 -87 -213 -87zM130 577l129 156h40l129 -156h-33l-117 104l-117 -104h-31z"/>
<glyph glyph-name="atilde" horiz-adv-x="540" unicode="ã" d="M205 33q114 0 209 92v181q-179 -31 -246 -75.5t-67 -106.5q0 -44 27.5 -67.5t76.5 -23.5zM201 -9q-71 0 -109.5 34.5t-38.5 95.5q0 80 81.5 134t279.5 87v32q0 59 -29.5 89.5t-84.5 30.5q-61 0 -108.5 -22t-95.5 -65l-28 30q53 49 107.5 74t125.5 25q80 0 120.5 -42 t40.5 -117v-247q0 -93 15 -130h-51q-12 38 -12 78q-101 -87 -213 -87zM349 580q-27 0 -78 28t-70 28q-22 0 -31.5 -12.5t-9.5 -41.5h-34q0 99 77 99q28 0 78.5 -28t69.5 -28q22 0 31.5 12.5t9.5 41.5h34q0 -99 -77 -99z"/>
<glyph glyph-name="adieresis" horiz-adv-x="540" unicode="ä" d="M205 33q114 0 209 92v181q-179 -31 -246 -75.5t-67 -106.5q0 -44 27.5 -67.5t76.5 -23.5zM201 -9q-71 0 -109.5 34.5t-38.5 95.5q0 80 81.5 134t279.5 87v32q0 59 -29.5 89.5t-84.5 30.5q-61 0 -108.5 -22t-95.5 -65l-28 30q53 49 107.5 74t125.5 25q80 0 120.5 -42 t40.5 -117v-247q0 -93 15 -130h-51q-12 38 -12 78q-101 -87 -213 -87zM169 582v67h64v-67h-64zM337 582v67h64v-67h-64z"/>
<glyph glyph-name="aring" horiz-adv-x="540" unicode="å" d="M205 33q114 0 209 92v181q-179 -31 -246 -75.5t-67 -106.5q0 -44 27.5 -67.5t76.5 -23.5zM201 -9q-71 0 -109.5 34.5t-38.5 95.5q0 80 81.5 134t279.5 87v32q0 59 -29.5 89.5t-84.5 30.5q-61 0 -108.5 -22t-95.5 -65l-28 30q53 49 107.5 74t125.5 25q80 0 120.5 -42 t40.5 -117v-247q0 -93 15 -130h-51q-12 38 -12 78q-101 -87 -213 -87zM287 604q24 0 39.5 16.5t15.5 41.5t-15.5 41t-39.5 16t-39.5 -16t-15.5 -41t15.5 -41.5t39.5 -16.5zM287 575q-38 0 -62.5 24.5t-24.5 62.5q0 37 25 61.5t62 24.5t62 -24.5t25 -61.5q0 -38 -24.5 -62.5 t-62.5 -24.5z"/>
<glyph glyph-name="ae" horiz-adv-x="893" unicode="æ" d="M205 31q119 0 224 111q-19 55 -19 121q0 15 2 43q-93 -16 -156 -36.5t-96 -45t-46 -48.5t-13 -54q0 -44 27.5 -67.5t76.5 -23.5zM459 300h330q-6 86 -46 140t-112 54q-65 0 -114 -50.5t-58 -143.5zM201 -11q-71 0 -109.5 34.5t-38.5 95.5q0 80 81 135.5t278 88.5v31 q0 120 -113 120q-61 0 -107.5 -21.5t-95.5 -65.5l-28 30q53 49 107 74t125 25q129 0 150 -118q27 53 74.5 85.5t107.5 32.5q94 0 150.5 -73t56.5 -196v-7h-381q0 -104 50 -166.5t125 -62.5q59 0 97.5 27t70.5 82l35 -22q-70 -129 -206 -129q-57 0 -106 30.5t-79 86.5 q-117 -117 -244 -117z"/>
<glyph glyph-name="ccedilla" horiz-adv-x="526" unicode="ç" d="M272 -193q-63 0 -118 36l16 25q45 -30 96 -30q80 0 80 51q0 37 -44 37q-28 0 -55 -21l-25 12l22 74q-82 12 -136 85.5t-54 185.5q0 131 66 202.5t161 71.5q133 0 195 -140l-41 -22q-26 60 -62 90t-94 30q-32 0 -62 -12.5t-56.5 -38.5t-42.5 -72.5t-16 -107.5 q0 -107 50 -169.5t125 -62.5q58 0 94 29t68 92l38 -19q-34 -70 -80.5 -106.5t-115.5 -37.5l-14 -45q23 15 52 15t49.5 -17.5t20.5 -49.5q0 -44 -32.5 -64.5t-84.5 -20.5z"/>
<glyph glyph-name="egrave" horiz-adv-x="539" unicode="è" d="M103 300h332q-6 86 -46.5 140t-112.5 54q-65 0 -114.5 -50.5t-58.5 -143.5zM275 -11q-92 0 -156.5 74.5t-64.5 199.5q0 129 66 201t157 72q94 0 151 -73t57 -196v-7h-383q0 -104 50.5 -166.5t125.5 -62.5q59 0 98 27t71 82l35 -22q-70 -129 -207 -129zM264 582l-139 151 h75l95 -151h-31z"/>
<glyph glyph-name="eacute" horiz-adv-x="539" unicode="é" d="M103 300h332q-6 86 -46.5 140t-112.5 54q-65 0 -114.5 -50.5t-58.5 -143.5zM275 -11q-92 0 -156.5 74.5t-64.5 199.5q0 129 66 201t157 72q94 0 151 -73t57 -196v-7h-383q0 -104 50.5 -166.5t125.5 -62.5q59 0 98 27t71 82l35 -22q-70 -129 -207 -129zM254 582l95 151h75 l-139 -151h-31z"/>
<glyph glyph-name="ecircumflex" horiz-adv-x="539" unicode="ê" d="M103 300h332q-6 86 -46.5 140t-112.5 54q-65 0 -114.5 -50.5t-58.5 -143.5zM275 -11q-92 0 -156.5 74.5t-64.5 199.5q0 129 66 201t157 72q94 0 151 -73t57 -196v-7h-383q0 -104 50.5 -166.5t125.5 -62.5q59 0 98 27t71 82l35 -22q-70 -129 -207 -129zM129 577l129 156 h40l129 -156h-33l-117 104l-117 -104h-31z"/>
<glyph glyph-name="edieresis" horiz-adv-x="539" unicode="ë" d="M103 300h332q-6 86 -46.5 140t-112.5 54q-65 0 -114.5 -50.5t-58.5 -143.5zM275 -11q-92 0 -156.5 74.5t-64.5 199.5q0 129 66 201t157 72q94 0 151 -73t57 -196v-7h-383q0 -104 50.5 -166.5t125.5 -62.5q59 0 98 27t71 82l35 -22q-70 -129 -207 -129zM159 582v67h64v-67 h-64zM327 582v67h64v-67h-64z"/>
<glyph glyph-name="igrave" horiz-adv-x="228" unicode="ì" d="M110 582l-139 151h75l95 -151h-31zM90 0v525h48v-525h-48z"/>
<glyph glyph-name="iacute" horiz-adv-x="228" unicode="í" d="M90 0v525h48v-525h-48zM106 582l95 151h75l-139 -151h-31z"/>
<glyph glyph-name="icircumflex" horiz-adv-x="228" unicode="î" d="M-35 577l129 156h40l129 -156h-33l-117 104l-117 -104h-31zM90 0v525h48v-525h-48z"/>
<glyph glyph-name="idieresis" horiz-adv-x="228" unicode="ï" d="M-2 582v67h64v-67h-64zM166 582v67h64v-67h-64zM90 0v525h48v-525h-48z"/>
<glyph glyph-name="eth" horiz-adv-x="570" unicode="ð" d="M285 31q83 0 133 65t50 167q0 95 -49.5 158t-133.5 63t-133.5 -61t-49.5 -160q0 -98 48.5 -165t134.5 -67zM285 -11q-99 0 -165 75t-66 198t65 193.5t166 70.5q53 0 98.5 -27.5t72.5 -71.5q-28 114 -100 189l-117 -42l-15 40l98 35q-30 27 -81 57l24 36q64 -35 105 -75 l105 38l15 -40l-87 -32q113 -131 113 -371q0 -123 -66 -198t-165 -75z"/>
<glyph glyph-name="ntilde" horiz-adv-x="573" unicode="ñ" d="M84 0v525h48v-87q103 98 203 98q80 0 119.5 -41t39.5 -114v-381h-48v375q0 61 -28 90t-87 29q-94 0 -199 -100v-394h-48zM368 580q-27 0 -78 28t-70 28q-22 0 -31.5 -12.5t-9.5 -41.5h-34q0 99 77 99q28 0 78.5 -28t69.5 -28q22 0 31.5 12.5t9.5 41.5h34q0 -99 -77 -99z "/>
<glyph glyph-name="ograve" horiz-adv-x="570" unicode="ò" d="M285 31q83 0 133 65t50 167q0 97 -49 164t-134 67q-83 0 -133 -65.5t-50 -165.5q0 -98 48.5 -165t134.5 -67zM285 -11q-99 0 -165 75t-66 198q0 124 65.5 199t165.5 75q99 0 165 -75t66 -199q0 -123 -66 -198t-165 -75zM275 582l-139 151h75l95 -151h-31z"/>
<glyph glyph-name="oacute" horiz-adv-x="570" unicode="ó" d="M285 31q83 0 133 65t50 167q0 97 -49 164t-134 67q-83 0 -133 -65.5t-50 -165.5q0 -98 48.5 -165t134.5 -67zM285 -11q-99 0 -165 75t-66 198q0 124 65.5 199t165.5 75q99 0 165 -75t66 -199q0 -123 -66 -198t-165 -75zM261 582l95 151h75l-139 -151h-31z"/>
<glyph glyph-name="ocircumflex" horiz-adv-x="570" unicode="ô" d="M285 31q83 0 133 65t50 167q0 97 -49 164t-134 67q-83 0 -133 -65.5t-50 -165.5q0 -98 48.5 -165t134.5 -67zM285 -11q-99 0 -165 75t-66 198q0 124 65.5 199t165.5 75q99 0 165 -75t66 -199q0 -123 -66 -198t-165 -75zM136 577l129 156h40l129 -156h-33l-117 104 l-117 -104h-31z"/>
<glyph glyph-name="otilde" horiz-adv-x="570" unicode="õ" d="M285 31q83 0 133 65t50 167q0 97 -49 164t-134 67q-83 0 -133 -65.5t-50 -165.5q0 -98 48.5 -165t134.5 -67zM285 -11q-99 0 -165 75t-66 198q0 124 65.5 199t165.5 75q99 0 165 -75t66 -199q0 -123 -66 -198t-165 -75zM360 580q-27 0 -78 28t-70 28q-22 0 -31.5 -12.5 t-9.5 -41.5h-34q0 99 77 99q28 0 78.5 -28t69.5 -28q22 0 31.5 12.5t9.5 41.5h34q0 -99 -77 -99z"/>
<glyph glyph-name="odieresis" horiz-adv-x="570" unicode="ö" d="M285 31q83 0 133 65t50 167q0 97 -49 164t-134 67q-83 0 -133 -65.5t-50 -165.5q0 -98 48.5 -165t134.5 -67zM285 -11q-99 0 -165 75t-66 198q0 124 65.5 199t165.5 75q99 0 165 -75t66 -199q0 -123 -66 -198t-165 -75zM168 582v67h64v-67h-64zM336 582v67h64v-67h-64z "/>
<glyph glyph-name="divide" horiz-adv-x="634" unicode="÷" d="M278 111v78h72v-78h-72zM65 302v44h504v-44h-504zM278 458v78h72v-78h-72z"/>
<glyph glyph-name="oslash" horiz-adv-x="570" unicode="ø" d="M421 424l-248 -351q47 -42 112 -42q83 0 133 65t50 167q0 97 -47 161zM149 100l247 352q-45 42 -111 42q-83 0 -133 -65.5t-50 -165.5q0 -98 47 -163zM449 462q67 -77 67 -200t-66 -198t-165 -75q-76 0 -136 47l-47 -67l-32 22l51 72q-67 77 -67 199q0 124 65.5 199 t165.5 75q77 0 135 -46l48 68l33 -23z"/>
<glyph glyph-name="ugrave" horiz-adv-x="573" unicode="ù" d="M238 -11q-80 0 -119.5 41t-39.5 114v381h48v-375q0 -61 28 -90t87 -29q94 0 199 100v394h48v-525h-48v87q-103 -98 -203 -98zM279 582l-139 151h75l95 -151h-31z"/>
<glyph glyph-name="uacute" horiz-adv-x="573" unicode="ú" d="M238 -11q-80 0 -119.5 41t-39.5 114v381h48v-375q0 -61 28 -90t87 -29q94 0 199 100v394h48v-525h-48v87q-103 -98 -203 -98zM261 582l95 151h75l-139 -151h-31z"/>
<glyph glyph-name="ucircumflex" horiz-adv-x="573" unicode="û" d="M238 -11q-80 0 -119.5 41t-39.5 114v381h48v-375q0 -61 28 -90t87 -29q94 0 199 100v394h48v-525h-48v87q-103 -98 -203 -98zM135 577l129 156h40l129 -156h-33l-117 104l-117 -104h-31z"/>
<glyph glyph-name="udieresis" horiz-adv-x="573" unicode="ü" d="M238 -11q-80 0 -119.5 41t-39.5 114v381h48v-375q0 -61 28 -90t87 -29q94 0 199 100v394h48v-525h-48v87q-103 -98 -203 -98zM170 582v67h64v-67h-64zM338 582v67h64v-67h-64z"/>
<glyph glyph-name="yacute" horiz-adv-x="519" unicode="ý" d="M87 -200q-42 0 -72 9l12 40q26 -7 66 -7q46 0 73 21t45 69l25 65l-204 528h53l174 -467h2l174 467h52l-227 -587q-29 -75 -65 -106.5t-108 -31.5zM183 582l95 151h75l-139 -151h-31z"/>
<glyph glyph-name="thorn" horiz-adv-x="586" unicode="þ" d="M312 33q74 0 122.5 57.5t48.5 171.5q0 113 -49.5 172.5t-123.5 59.5q-50 0 -90 -22.5t-88 -71.5v-273q92 -94 180 -94zM84 -200v940h48v-292q84 88 179 88q96 0 158 -70.5t62 -202.5t-62.5 -202t-159.5 -70q-89 0 -177 86v-277h-48z"/>
<glyph glyph-name="dotlessi" horiz-adv-x="228" unicode="ı" d="M90 0v525h48v-525h-48z"/>
<glyph glyph-name="OE" horiz-adv-x="1116" unicode="Œ" d="M367 31q111 0 182 91.5t71 247.5t-71 247.5t-182 91.5q-112 0 -183 -91.5t-71 -247.5t71 -247.5t183 -91.5zM367 -14q-134 0 -219 107t-85 277t85 277t219 107q89 0 155 -47t99 -127v160h425v-46h-378v-278h284v-46h-284v-324h400v-46h-447v162q-34 -80 -99.5 -128 t-154.5 -48z"/>
<glyph glyph-name="oe" horiz-adv-x="944" unicode="œ" d="M283 31q83 0 132 65t49 167q0 97 -48 164t-133 67q-83 0 -132 -65t-49 -166q0 -98 47.5 -165t133.5 -67zM512 300h328q-6 86 -45.5 140t-111.5 54q-65 0 -113.5 -50.5t-57.5 -143.5zM283 -11q-99 0 -164 75t-65 198q0 124 64.5 199t164.5 75q73 0 126.5 -42t77.5 -110 q24 68 76.5 110t120.5 42q93 0 149.5 -73t56.5 -196v-7h-379q0 -105 49.5 -167t124.5 -62q59 0 97 26.5t70 82.5l35 -22q-70 -129 -205 -129q-66 0 -119 42.5t-77 109.5q-24 -69 -77 -110.5t-126 -41.5z"/>
<glyph glyph-name="Scaron" horiz-adv-x="639" unicode="Š" d="M325 -14q-101 0 -170 53t-92 146l49 12q21 -82 77 -124t138 -42q90 0 143 40.5t53 107.5q0 64 -40.5 102t-164.5 78q-130 42 -181.5 86t-51.5 126q0 76 63 129.5t159 53.5q98 0 159.5 -46.5t85.5 -127.5l-48 -14q-26 76 -74.5 109.5t-123.5 33.5q-77 0 -124 -39t-47 -96 q0 -65 43 -98t174 -76q122 -40 171.5 -87.5t49.5 -130.5q0 -90 -71 -143t-177 -53zM299 797l-129 156h33l117 -104l117 104h31l-129 -156h-40z"/>
<glyph glyph-name="scaron" d="M245 -9q-130 0 -197 97l35 27q64 -82 163 -82q73 0 111.5 27.5t38.5 76.5q0 48 -33.5 73t-122.5 46q-100 25 -138.5 57t-38.5 92q0 54 46 92.5t127 38.5q112 0 186 -77l-32 -33q-63 68 -155 68q-61 0 -92.5 -25.5t-31.5 -61.5q0 -41 28 -63t105 -41q114 -28 157 -62.5 t43 -103.5q0 -67 -55 -106.5t-144 -39.5zM230 582l-129 156h33l117 -104l117 104h31l-129 -156h-40z" unicode="š"/>
<glyph glyph-name="Ydieresis" horiz-adv-x="601" unicode="Ÿ" d="M275 0v329l-246 411h56l217 -368l216 368h54l-247 -411v-329h-50zM184 787v67h64v-67h-64zM352 787v67h64v-67h-64z"/>
<glyph glyph-name="circumflex" d="M101 577l129 156h40l129 -156h-33l-117 104l-117 -104h-31z" unicode="ˆ"/>
<glyph glyph-name="caron" d="M230 582l-129 156h33l117 -104l117 104h31l-129 -156h-40z" unicode="ˇ"/>
<glyph glyph-name="ring" horiz-adv-x="540" unicode="˚" d="M270 604q24 0 39.5 16.5t15.5 41.5t-15.5 41t-39.5 16t-39.5 -16t-15.5 -41t15.5 -41.5t39.5 -16.5zM270 575q-38 0 -62.5 24.5t-24.5 62.5q0 37 25 61.5t62 24.5t62 -24.5t25 -61.5q0 -38 -24.5 -62.5t-62.5 -24.5z"/>
<glyph glyph-name="tilde" d="M323 580q-27 0 -78 28t-70 28q-22 0 -31.5 -12.5t-9.5 -41.5h-34q0 99 77 99q28 0 78.5 -28t69.5 -28q22 0 31.5 12.5t9.5 41.5h34q0 -99 -77 -99z" unicode="˜"/>
<glyph glyph-name="pi" horiz-adv-x="862" unicode="π" d="M347 388h100q54 0 81.5 18.5t27.5 62.5q0 78 -110 78h-99v-159zM309 158v425h140q70 0 107.5 -29.5t37.5 -83.5q0 -59 -39.5 -88.5t-109.5 -29.5h-98v-194h-38zM431 20q144 0 244.5 103t100.5 247t-100.5 247t-244.5 103t-244.5 -103t-100.5 -247t100.5 -247t244.5 -103z M431 -14q-159 0 -270 112.5t-111 271.5t111 271.5t270 112.5t270 -112.5t111 -271.5t-111 -271.5t-270 -112.5z"/>
<glyph glyph-name="endash" horiz-adv-x="640" unicode="–" d="M70 291v46h500v-46h-500z"/>
<glyph glyph-name="emdash" horiz-adv-x="920" unicode="—" d="M70 291v46h780v-46h-780z"/>
<glyph glyph-name="quoteleft" horiz-adv-x="265" unicode="‘" d="M99 563v74l39 103h22l-20 -97h26v-80h-67z"/>
<glyph glyph-name="quotesinglbase" horiz-adv-x="265" unicode="‚" d="M105 -97l20 97h-26v80h67v-74l-39 -103h-22z"/>
<glyph glyph-name="quotedblleft" horiz-adv-x="437" unicode="“" d="M99 563v74l39 103h22l-20 -97h26v-80h-67zM271 563v74l39 103h22l-20 -97h26v-80h-67z"/>
<glyph glyph-name="quotedblright" horiz-adv-x="437" unicode="”" d="M105 563l20 97h-26v80h67v-74l-39 -103h-22zM277 563l20 97h-26v80h67v-74l-39 -103h-22z"/>
<glyph glyph-name="dagger" horiz-adv-x="543" unicode="†" d="M244 -200l10 636l-201 -9v49l201 -10l-10 274h55l-10 -274l201 10v-49l-201 9l10 -636h-55z"/>
<glyph glyph-name="daggerdbl" horiz-adv-x="543" unicode="‡" d="M244 -200l10 247l-196 -10v49l196 -9l-6 196l6 191l-196 -9v49l196 -10l-10 246h55l-10 -246l196 10v-49l-196 9l6 -191l-6 -196l196 9v-49l-196 10l10 -247h-55z"/>
<glyph glyph-name="ellipsis" horiz-adv-x="795" unicode="…" d="M99 0v80h67v-80h-67zM364 0v80h67v-80h-67zM629 0v80h67v-80h-67z"/>
<glyph glyph-name="perthousand" horiz-adv-x="1338" unicode="‰" d="M714 33q51 0 80.5 50t29.5 124q0 79 -29.5 127t-81.5 48q-51 0 -80.5 -49.5t-29.5 -123.5q0 -79 29.5 -127.5t81.5 -48.5zM1114 33q51 0 80.5 50t29.5 124q0 79 -29.5 127t-81.5 48q-51 0 -80.5 -49.5t-29.5 -123.5q0 -79 29.5 -127.5t81.5 -48.5zM225 358q51 0 80.5 50 t29.5 124q0 79 -29.5 127t-81.5 48q-51 0 -80.5 -49.5t-29.5 -123.5q0 -79 29.5 -127.5t81.5 -48.5zM713 -10q-75 0 -116.5 59t-41.5 156q0 101 43.5 160.5t116.5 59.5t115 -58.5t42 -157.5q0 -97 -42.5 -158t-116.5 -61zM1113 -10q-75 0 -116.5 59t-41.5 156 q0 101 43.5 160.5t116.5 59.5t115 -58.5t42 -157.5q0 -97 -42.5 -158t-116.5 -61zM224 0l442 740h48l-442 -740h-48zM224 315q-75 0 -116.5 59t-41.5 156q0 101 43.5 160.5t116.5 59.5t115 -58.5t42 -157.5q0 -97 -42.5 -158t-116.5 -61z"/>
<glyph glyph-name="guilsinglleft" horiz-adv-x="313" unicode="‹" d="M194 0l-144 263l144 262h53l-142 -262l142 -263h-53z"/>
<glyph glyph-name="guilsinglright" horiz-adv-x="313" unicode="›" d="M65 0l143 263l-143 262h53l145 -262l-145 -263h-53z"/>
<glyph glyph-name="fraction" horiz-adv-x="448" unicode="⁄" d="M-15 0l430 740h48l-430 -740h-48z"/>
<glyph glyph-name="Euro" horiz-adv-x="712" unicode="€" d="M145 423h-124v45h129q19 141 93 213.5t171 72.5q174 0 228 -214l-48 -11q-26 93 -64 136.5t-117 43.5q-81 0 -139.5 -61t-75.5 -180h243v-45h-248q-1 -14 -1 -44q0 -23 2 -61h247v-46h-242q17 -118 73 -179.5t143 -61.5q79 0 123 47t69 142l47 -11q-57 -223 -240 -223 q-104 0 -174 72.5t-90 213.5h-129v46h125q-2 36 -2 57q0 9 0.5 25t0.5 23z"/>
<glyph glyph-name="trademark" horiz-adv-x="865" unicode="™" d="M166 317v386h-135v37h310v-37h-135v-386h-40zM419 317v423h51l139 -370l140 370h52v-423h-42v345l-133 -345h-35l-133 345v-345h-39z"/>
<glyph glyph-name="partialdiff" horiz-adv-x="760" unicode="∂" d="M242 233l121 -6v125h-126zM518 232l6 120h-126v-125zM243 509l-6 -122h126v127zM519 508l-121 6v-127h126zM562 552l32 2v-49l-34 1l-6 -119l196 10v-55l-196 10l6 -118l34 2v-49l-32 2l2 -33h-49l1 35l-118 6l10 -197h-55l10 197l-119 -6l2 -35h-49l2 33l-32 -2v49 l34 -1l6 117l-197 -10v55l197 -10l-6 120l-34 -2v49l32 -2l-2 31h49l-1 -33l118 -6l-10 196h55l-10 -196l119 6l-2 33h49z"/>
<glyph glyph-name="product" horiz-adv-x="551" unicode="∏" d="M221 541h57q62 0 62 46q0 43 -63 43h-56v-89zM192 398v260h87q43 0 66.5 -18.5t23.5 -51.5q0 -58 -58 -70l66 -120l-34 1l-63 115h-59v-116h-29zM276 317q85 0 144.5 60.5t59.5 146.5q0 85 -60 146t-144 61t-144 -61t-60 -146q0 -86 59.5 -146.5t144.5 -60.5zM276 290 q-97 0 -164.5 68t-67.5 166q0 97 67.5 165t164.5 68t164 -68t67 -165q0 -98 -67 -166t-164 -68z"/>
<glyph glyph-name="summation" horiz-adv-x="760" unicode="∑" d="M242 233l121 -6v125h-126zM518 232l6 120h-126v-125zM243 509l-6 -122h126v127zM519 508l-121 6v-127h126zM562 552l32 2v-49l-34 1l-6 -119l196 10v-55l-196 10l6 -118l34 2v-49l-32 2l2 -33h-49l1 35l-118 6l10 -197h-55l10 197l-119 -6l2 -35h-49l2 33l-32 -2v49 l34 -1l6 117l-197 -10v55l197 -10l-6 120l-34 -2v49l32 -2l-2 31h49l-1 -33l118 -6l-10 196h55l-10 -196l119 6l-2 33h49z"/>
<glyph glyph-name="minus" horiz-adv-x="634" unicode="−" d="M65 302v44h504v-44h-504z"/>
<glyph glyph-name="radical" horiz-adv-x="582" unicode="√" d="M227 -3l-195 528h53l166 -465h2l245 680h52l-275 -743h-48z"/>
<glyph glyph-name="infinity" horiz-adv-x="832" unicode="∞" d="M694 0v525h48v-525h-48zM120 0v482h-92v43h92v89q0 126 144 126h26v-44q-8 1 -32 1q-90 0 -90 -79v-93h239v89q0 126 144 126h26v-44q-8 1 -32 1q-90 0 -90 -79v-93h116v-43h-116v-482h-48v482h-239v-482h-48zM692 659v61h52v-61h-52z"/>
<glyph glyph-name="approxequal" horiz-adv-x="760" unicode="≈" d="M242 233l121 -6v125h-126zM518 232l6 120h-126v-125zM243 509l-6 -122h126v127zM519 508l-121 6v-127h126zM562 552l32 2v-49l-34 1l-6 -119l196 10v-55l-196 10l6 -118l34 2v-49l-32 2l2 -33h-49l1 35l-118 6l10 -197h-55l10 197l-119 -6l2 -35h-49l2 33l-32 -2v49 l34 -1l6 117l-197 -10v55l197 -10l-6 120l-34 -2v49l32 -2l-2 31h49l-1 -33l118 -6l-10 196h55l-10 -196l119 6l-2 33h49z"/>
<glyph glyph-name="notequal" horiz-adv-x="600" unicode="≠" d="M120 0v482h-92v43h92v89q0 126 144 126h26v-44q-8 1 -32 1q-90 0 -90 -79v-93h239v89q0 126 144 126h26v-44q-8 1 -32 1q-90 0 -90 -79v-93h116v-43h-116v-482h-48v482h-239v-482h-48z"/>
<glyph glyph-name="lessequal" horiz-adv-x="760" unicode="≤" d="M242 233l121 -6v125h-126zM518 232l6 120h-126v-125zM243 509l-6 -122h126v127zM519 508l-121 6v-127h126zM562 552l32 2v-49l-34 1l-6 -119l196 10v-55l-196 10l6 -118l34 2v-49l-32 2l2 -33h-49l1 35l-118 6l10 -197h-55l10 197l-119 -6l2 -35h-49l2 33l-32 -2v49 l34 -1l6 117l-197 -10v55l197 -10l-6 120l-34 -2v49l32 -2l-2 31h49l-1 -33l118 -6l-10 196h55l-10 -196l119 6l-2 33h49z"/>
<glyph glyph-name="greaterequal" horiz-adv-x="760" unicode="≥" d="M242 233l121 -6v125h-126zM518 232l6 120h-126v-125zM243 509l-6 -122h126v127zM519 508l-121 6v-127h126zM562 552l32 2v-49l-34 1l-6 -119l196 10v-55l-196 10l6 -118l34 2v-49l-32 2l2 -33h-49l1 35l-118 6l10 -197h-55l10 197l-119 -6l2 -35h-49l2 33l-32 -2v49 l34 -1l6 117l-197 -10v55l197 -10l-6 120l-34 -2v49l32 -2l-2 31h49l-1 -33l118 -6l-10 196h55l-10 -196l119 6l-2 33h49z"/>
<glyph glyph-name="lozenge" horiz-adv-x="760" unicode="◊" d="M242 233l121 -6v125h-126zM518 232l6 120h-126v-125zM243 509l-6 -122h126v127zM519 508l-121 6v-127h126zM562 552l32 2v-49l-34 1l-6 -119l196 10v-55l-196 10l6 -118l34 2v-49l-32 2l2 -33h-49l1 35l-118 6l10 -197h-55l10 197l-119 -6l2 -35h-49l2 33l-32 -2v49 l34 -1l6 117l-197 -10v55l197 -10l-6 120l-34 -2v49l32 -2l-2 31h49l-1 -33l118 -6l-10 196h55l-10 -196l119 6l-2 33h49z"/>
</font>
</defs>
</svg>
